# xmcd
#
# Track frame offsets: 
#        150
#        1194
#        35455
#        54210
#        97320
#        138788
#        169750
#
# Disc length: 3154 seconds
#
# Revision: 0
# Processed by: cddbd v1.5.2PL0 Copyright (c) Steve Scherf et al.
# Submitted via: ExactAudioCopy v0.99pb5
#
DISCID=4e0c5007
DTITLE=Johnny Winter - Live Bootleg Series Vol. 6
DYEAR=2010
DGENRE=Blues
TTITLE0=Introduction
TTITLE1=Sen-Sa-Shun
TTITLE2=Johnny Guitar
TTITLE3=Blackjack
TTITLE4=She Likes To Boogie Real Low
TTITLE5=White Line Blues
TTITLE6=It's My Own Fault
EXTD=
EXTT0=
EXTT1=
EXTT2=
EXTT3=
EXTT4=
EXTT5=
EXTT6=
PLAYORDER=
